Coordinates
version=1
nRows=21
nColumns=12
inDegrees=yes

Units are S.I. units (second, meters, Newtons, ...)
Angles are in degrees

endheader
time	SC_y	SC_z	SC_x	AC_y	AC_z	AC_x	GH_y	GH_z	GH_yy	EL_x	PS_y
       0.0              -30.69          13.64          71.23          33.65          4.475          14.69          91.86          80.66         -93.42          90.19          150.7
   0.02011              -30.68          13.64          71.22          33.65          4.473          14.68          91.86          80.66         -93.41          90.18          150.6
   0.04022              -30.68          13.64          71.22          33.65          4.472          14.68          91.86          80.65         -93.39          90.18          150.6
   0.06033              -30.68          13.64          71.21          33.65           4.47          14.67          91.86          80.65         -93.38          90.18          150.6
   0.08044              -30.68          13.64           71.2          33.65          4.469          14.67          91.86          80.65         -93.36          90.18          150.6
    0.1005              -30.68          13.64          71.19          33.65          4.467          14.66          91.86          80.65         -93.34          90.18          150.6
    0.1207              -30.67          13.64          71.18          33.65          4.466          14.65          91.86          80.65         -93.32          90.17          150.6
    0.1408              -30.67          13.64          71.17          33.65          4.464          14.65          91.86          80.64          -93.3          90.17          150.5
    0.1609              -30.67          13.64          71.16          33.65          4.462          14.64          91.86          80.64         -93.28          90.17          150.5
     0.181              -30.66          13.64          71.15          33.65           4.46          14.63          91.86          80.64         -93.25          90.17          150.5
    0.2011              -30.66          13.64          71.13          33.65          4.457          14.62          91.86          80.63         -93.23          90.16          150.5
    0.2212              -30.66          13.64          71.12          33.65          4.455          14.61          91.86          80.63          -93.2          90.16          150.5
    0.2413              -30.65          13.64           71.1          33.65          4.452           14.6          91.86          80.63         -93.17          90.16          150.4
    0.2614              -30.65          13.64          71.09          33.65          4.449          14.59          91.86          80.62         -93.14          90.15          150.4
    0.2815              -30.65          13.64          71.07          33.64          4.446          14.58          91.87          80.62          -93.1          90.15          150.4
    0.3016              -30.64          13.64          71.05          33.64          4.443          14.57          91.87          80.62         -93.07          90.15          150.3
    0.3218              -30.64          13.65          71.03          33.64          4.439          14.55          91.87          80.61         -93.02          90.14          150.3
    0.3419              -30.63          13.65          71.01          33.64          4.435          14.54          91.87           80.6         -92.98          90.14          150.2
     0.362              -30.63          13.65          70.98          33.64          4.431          14.52          91.87           80.6         -92.93          90.13          150.2
    0.3821              -30.62          13.65          70.96          33.64          4.426           14.5          91.87          80.59         -92.88          90.12          150.2
    0.4022              -30.61          13.65          70.93          33.64           4.42          14.48          91.87          80.59         -92.82          90.12          150.1
